<svg xmlns="http://www.w3.org/2000/svg" width="32" height="32"><path d="M16 3.733C9.2 3.733 3.733 9.2 3.733 16S9.2 28.267 16 28.267 28.267 22.8 28.267 16 22.8 3.733 16 3.733M1.6 16C1.6 8.133 8.133 1.6 16 1.6S30.4 8 30.4 16c0 7.867-6.4 14.4-14.4 14.4-7.867 0-14.4-6.533-14.4-14.4"/><path d="M16 13.067c-1.6 0-2.933 1.333-2.933 2.933S14.4 18.933 16 18.933 18.933 17.6 18.933 16 17.6 13.067 16 13.067M10.933 16c0-2.8 2.267-5.067 5.067-5.067S21.067 13.2 21.067 16 18.8 21.067 16 21.067 10.933 18.8 10.933 16"/></svg>