<svg xmlns="http://www.w3.org/2000/svg" width="32" height="32"><path d="M14.933 22.667c0-.533.4-1.067 1.067-1.067.533 0 1.067.4 1.067 1.067s-.4 1.067-1.067 1.067c-.533 0-1.067-.533-1.067-1.067M16 8.267c.533 0 1.067.4 1.067 1.067v8c0 .533-.4 1.067-1.067 1.067s-1.067-.4-1.067-1.067v-8c0-.533.533-1.067 1.067-1.067"/><path d="M8.533 2.8a3.64 3.64 0 0 1 2.533-1.067h9.733c.933 0 1.867.4 2.533 1.067l5.733 5.733a3.64 3.64 0 0 1 1.067 2.533v9.733c0 .933-.4 1.867-1.067 2.533l-5.733 5.733a3.64 3.64 0 0 1-2.533 1.067h-9.733a3.64 3.64 0 0 1-2.533-1.067L2.8 23.332a3.64 3.64 0 0 1-1.067-2.533v-9.733c0-.933.4-1.867 1.067-2.533zm2.534.933q-.6 0-1.2.4L4.134 9.866q-.4.6-.4 1.2v9.733c0 .4.133.8.533 1.2L10 27.732c.267.267.8.533 1.2.533h9.733c.4 0 .8-.133 1.2-.533l5.733-5.733c.267-.267.533-.8.533-1.2v-9.733c0-.4-.133-.8-.533-1.2l-5.733-5.733c-.267-.267-.8-.533-1.2-.533h-9.867z"/></svg>