<svg xmlns="http://www.w3.org/2000/svg" width="32" height="32"><path d="M10.133 6.8c.267.4.133 1.067-.267 1.333-.533.533-1.067.933-1.6 1.467-.533.533-.933 1.067-1.333 1.6-.4.667-.8 1.2-1.067 1.867s-.533 1.333-.667 2a12.2 12.2 0 0 0 0 4.4c.133.667.4 1.333.667 2a8.5 8.5 0 0 0 1.067 1.867c.4.533.8 1.2 1.333 1.6.533.533 1.067.933 1.6 1.333s1.2.667 1.733 1.067c.667.267 1.333.533 2 .667q2.2.4 4.4 0c.667-.133 1.333-.4 2-.667a8.5 8.5 0 0 0 1.867-1.067c1.2-.8 2.267-1.867 3.067-3.067.4-.533.667-1.2 1.067-1.733.267-.667.533-1.333.667-2a12.2 12.2 0 0 0 0-4.4c-.133-.667-.4-1.333-.667-2a8.5 8.5 0 0 0-1.067-1.867c-.8-1.2-1.867-2.267-3.067-3.067-.4-.267-.533-.933-.267-1.333s.933-.533 1.333-.267c1.333.933 2.667 2.133 3.6 3.6.533.667.933 1.467 1.2 2.267.4.8.533 1.6.8 2.4q.6 2.6 0 5.2-.2 1.2-.8 2.4c-.267.8-.667 1.467-1.2 2.133q-1.4 2-3.6 3.6c-.667.533-1.467.933-2.267 1.2-.8.4-1.6.533-2.4.8q-2.6.6-5.2 0-1.2-.2-2.4-.8c-.8-.267-1.467-.667-2.133-1.2a7 7 0 0 1-1.867-1.6 5.9 5.9 0 0 1-1.6-2c-.533-.667-.933-1.467-1.2-2.267-.4-.8-.533-1.6-.8-2.4q-.6-2.6 0-5.2c.4-.8.667-1.6.933-2.4s.667-1.467 1.2-2.133c.4-.667.933-1.333 1.6-1.867q.8-1 2-1.6c.4-.4 1.067-.267 1.333.133z"/><path d="M16 1.6c.533 0 1.067.4 1.067 1.067V16c0 .533-.4 1.067-1.067 1.067s-1.067-.4-1.067-1.067V2.667c0-.533.533-1.067 1.067-1.067"/></svg>