<svg xmlns="http://www.w3.org/2000/svg" width="32" height="32"><path d="m31.623 28.27-1.12-1.795a6.96 6.96 0 0 0-2.608-2.455 2.66 2.66 0 0 0 2.046-1.515 2.68 2.68 0 0 0-.152-2.541l-.235-.375a5.5 5.5 0 0 0-2.292-2.065 2.5 2.5 0 0 0 1.247-1.545 2.5 2.5 0 0 0-.287-1.964 4.63 4.63 0 0 0-3.948-2.193h-5.352a4.63 4.63 0 0 0-3.947 2.193 2.46 2.46 0 0 0-.062 2.515 2.5 2.5 0 0 0 1.022.995 5.5 5.5 0 0 0-2.292 2.065l-.235.375a2.6 2.6 0 0 0-.397 1.51q-.619.27-1.185.637a6.84 6.84 0 0 0-3.195-4.23.44.44 0 0 0-.44 0 6.85 6.85 0 0 0-3.197 4.227 8.33 8.33 0 0 0-4.553-1.34.437.437 0 0 0-.437.437v.135a8.38 8.38 0 0 0 2.26 5.728 5.03 5.03 0 0 0-2.203 2.025.44.44 0 0 0 0 .438 5.04 5.04 0 0 0 4.025 2.509 5.04 5.04 0 0 0 4.325-1.946 5 5 0 0 0 4.745 1.897q.257.057.52.06h15.85a2.476 2.476 0 0 0 2.1-3.782zM15.676 16.105a1.58 1.58 0 0 1 .042-1.628 3.76 3.76 0 0 1 3.202-1.78h5.352a3.77 3.77 0 0 1 3.205 1.78 1.606 1.606 0 0 1-1.362 2.453h-9.037a1.59 1.59 0 0 1-1.402-.825m-1.528 4.323.235-.375a4.65 4.65 0 0 1 3.968-2.203h6.492a4.64 4.64 0 0 1 3.967 2.203l.235.375a1.797 1.797 0 0 1-.613 2.494c-.275.162-.59.248-.91.248H16.614a9 9 0 0 0 .2-1.962.437.437 0 0 0-.437-.437 8.5 8.5 0 0 0-2.488.375c.034-.255.122-.499.258-.718zm-2.152 2.624a7.6 7.6 0 0 1 2.59-1.19c.125-.03 1.35-.217 1.348-.195a7.62 7.62 0 0 1-6.012 7.055 6.88 6.88 0 0 0 2.075-5.67zM.881 21.658a7.46 7.46 0 0 1 3.94 1.395 6.9 6.9 0 0 0 2.075 5.67A7.56 7.56 0 0 1 .88 21.658zm3.542 9.52a4.17 4.17 0 0 1-3.47-1.866 4.15 4.15 0 0 1 1.982-1.587 8.47 8.47 0 0 0 4.657 1.987 4.2 4.2 0 0 1-3.17 1.465zm3.985-2.38a5.94 5.94 0 0 1-2.75-5.013 5.95 5.95 0 0 1 2.75-5.013 5.97 5.97 0 0 1 2.695 4.188 6.02 6.02 0 0 1-2.695 5.837zm4.608 2.332a4.2 4.2 0 0 1-3.792-1.417 8.46 8.46 0 0 0 4.655-1.985 4.2 4.2 0 0 1 1.787 1.31q.1.132.195.27c.092.14-.695.812-.802.902a4.2 4.2 0 0 1-2.043.92m17.905-.775a1.58 1.58 0 0 1-1.398.823h-14.29a5.1 5.1 0 0 0 1.525-1.645.44.44 0 0 0 0-.438 5.1 5.1 0 0 0-2.193-2.028 8.5 8.5 0 0 0 1.618-2.518 6.2 6.2 0 0 1 2.502-.505h5.823a6.13 6.13 0 0 1 5.253 2.892l1.12 1.795a1.58 1.58 0 0 1 .04 1.623zM22.538.438a.437.437 0 1 0-.874 0c.008.434-.142.856-.422 1.188a2.6 2.6 0 0 0-.578 1.686c-.01.613.194 1.21.578 1.687.28.332.43.754.422 1.188.008.434-.142.856-.422 1.188a2.63 2.63 0 0 0-.578 1.687.437.437 0 1 0 .874 0 1.8 1.8 0 0 1 .422-1.187 2.63 2.63 0 0 0 .578-1.687 2.62 2.62 0 0 0-.578-1.687 1.8 1.8 0 0 1-.422-1.188 1.8 1.8 0 0 1 .422-1.186 2.62 2.62 0 0 0 .578-1.688zm3.631 0a.437.437 0 1 0-.874 0 1.8 1.8 0 0 1-.421 1.188 2.62 2.62 0 0 0-.579 1.686c-.01.613.194 1.21.578 1.687.28.332.43.754.422 1.188.008.434-.142.856-.422 1.188a2.63 2.63 0 0 0-.578 1.687.437.437 0 1 0 .874 0 1.8 1.8 0 0 1 .422-1.187 2.63 2.63 0 0 0 .578-1.687 2.62 2.62 0 0 0-.578-1.687 1.8 1.8 0 0 1-.422-1.188 1.8 1.8 0 0 1 .421-1.186 2.63 2.63 0 0 0 .579-1.688zm-7.269 0a.437.437 0 1 0-.874 0c.008.434-.141.856-.422 1.188a2.6 2.6 0 0 0-.578 1.686c-.01.613.194 1.21.578 1.687.28.332.43.754.422 1.188.008.434-.142.856-.422 1.188a2.63 2.63 0 0 0-.578 1.687.437.437 0 1 0 .874 0 1.8 1.8 0 0 1 .422-1.187 2.63 2.63 0 0 0 .578-1.687 2.62 2.62 0 0 0-.578-1.687 1.8 1.8 0 0 1-.422-1.188 1.8 1.8 0 0 1 .422-1.186A2.62 2.62 0 0 0 18.9.439z"/></svg>